<svg width="40" height="40" viewBox="0 0 40 40" xmlns="http://www.w3.org/2000/svg" xmlns:xlink="http://www.w3.org/1999/xlink"><defs><path id="path-1" d="M0 0h40v40H0z"/></defs><g id="Faktaruta" stroke="none" stroke-width="1" fill="none" fill-rule="evenodd" transform="translate(-240 -701)"><g id="Group" transform="translate(240 699)"><g id="Page-1" transform="translate(0 2)"><mask id="mask-2" fill="#fff"><use xlink:href="#path-1"/></mask><path d="M30.95 15.266a5.952 5.952 0 01-1.576 1.481 12074.014 12074.014 0 00-6.05 3.916 88.766 88.766 0 00-.55.367c-.28.189-.513.341-.699.458-.185.116-.41.247-.672.391-.263.145-.51.253-.743.326a2.193 2.193 0 01-.647.108h-.026c-.198 0-.413-.036-.646-.108a4.059 4.059 0 01-.743-.326 13.37 13.37 0 01-.673-.391c-.185-.117-.418-.27-.698-.458a168.99 168.99 0 00-.55-.367 843.972 843.972 0 00-3.387-2.199 555.269 555.269 0 01-2.65-1.717c-.534-.337-1.039-.8-1.512-1.39-.474-.591-.711-1.14-.711-1.645 0-.627.178-1.149.536-1.566.358-.418.868-.627 1.532-.627h19.03c.56 0 1.045.19 1.455.566.409.378.614.832.614 1.362 0 .634-.212 1.24-.633 1.819zm.634 11.028L25.8 20.905a384.158 384.158 0 014.49-2.869 7.01 7.01 0 001.293-1.048v9.306zm-2.069 2.187h-19.03c-.52 0-.972-.16-1.356-.477l6.565-6.118.453.306c.492.337.89.6 1.196.79.306.188.713.38 1.222.577.508.197.982.296 1.422.296h.026c.44 0 .913-.099 1.422-.296a7.545 7.545 0 001.222-.578 30.7 30.7 0 001.196-.789l.454-.304 6.564 6.116a2.065 2.065 0 01-1.356.477zM8.416 16.988c.38.394.815.743 1.306 1.048 1.83 1.16 3.322 2.114 4.48 2.867l-5.786 5.39v-9.305zM38.42 12.22c-1.053-2.44-2.48-4.56-4.28-6.36-1.8-1.8-3.92-3.227-6.36-4.28C25.34.527 22.747 0 20 0c-1.84 0-3.613.24-5.32.72A20.28 20.28 0 009.9 2.74a19.94 19.94 0 00-4.04 3.12A19.94 19.94 0 002.74 9.9a20.28 20.28 0 00-2.02 4.78C.24 16.387 0 18.16 0 20c0 1.84.24 3.613.72 5.32a20.26 20.26 0 002.02 4.78 19.937 19.937 0 003.12 4.04 19.94 19.94 0 004.04 3.12 20.26 20.26 0 004.78 2.02c1.707.48 3.48.72 5.32.72 1.84 0 3.613-.24 5.32-.72a20.26 20.26 0 004.78-2.02 19.93 19.93 0 004.04-3.12 19.94 19.94 0 003.12-4.04 20.296 20.296 0 002.02-4.78c.48-1.707.72-3.48.72-5.32 0-2.747-.527-5.34-1.58-7.78z" id="Fill-1" fill="#3C3C3C" mask="url(#mask-2)"/></g></g></g></svg>