<svg width="40" height="40" viewBox="0 0 40 40" xmlns="http://www.w3.org/2000/svg" xmlns:xlink="http://www.w3.org/1999/xlink"><g id="Faktaruta" stroke="none" stroke-width="1" fill="none" fill-rule="evenodd" transform="translate(-647 -701)"><g id="Group" transform="translate(240 699)" fill="#0079B2" fill-rule="nonzero"><path d="M427 2c-11.046 0-20 8.954-20 20s8.954 20 20 20 20-8.954 20-20-8.954-20-20-20zm-4.896 28.29h-4.05V17.256h4.05V30.29zm-2.05-14.634c-1.279 0-2.106-.906-2.106-2.027 0-1.144.852-2.023 2.158-2.023 1.307 0 2.106.88 2.132 2.023 0 1.121-.825 2.027-2.184 2.027zm16.842 14.634h-4.05v-7.223c0-1.682-.588-2.823-2.052-2.823-1.119 0-1.784.773-2.077 1.516-.109.265-.136.64-.136 1.013v7.515h-4.052v-8.875c0-1.628-.052-2.988-.106-4.159h3.519l.185 1.81h.081c.534-.85 1.84-2.104 4.025-2.104 2.665 0 4.663 1.786 4.663 5.623v7.707z" id="Shape"/></g></g></svg>