<svg width="40" height="40" viewBox="0 0 40 40" xmlns="http://www.w3.org/2000/svg" xmlns:xlink="http://www.w3.org/1999/xlink"><g id="Faktaruta" stroke="none" stroke-width="1" fill="none" fill-rule="evenodd" transform="translate(-514 -701)"><g id="Group" transform="translate(240 699)" fill="#0DA4EE" fill-rule="nonzero"><path d="M294 2c-11.046 0-20 8.954-20 20s8.954 20 20 20 20-8.954 20-20-8.954-20-20-20zm8.135 16.383c.009.171.01.342.01.509 0 5.208-3.96 11.21-11.205 11.21-2.225 0-4.296-.65-6.038-1.77.306.037.62.051.94.051a7.89 7.89 0 004.891-1.685 3.947 3.947 0 01-3.679-2.733 3.958 3.958 0 001.777-.069 3.943 3.943 0 01-3.16-3.863v-.048a3.95 3.95 0 001.785.494 3.938 3.938 0 01-1.752-3.281c0-.72.194-1.4.534-1.981a11.2 11.2 0 008.118 4.118 3.94 3.94 0 016.713-3.594 7.911 7.911 0 002.5-.956 3.958 3.958 0 01-1.732 2.182 7.914 7.914 0 002.263-.623 7.987 7.987 0 01-1.965 2.04z" id="Shape"/></g></g></svg>