<?xml version="1.0" encoding="utf-8"?><svg xmlns="http://www.w3.org/2000/svg" xmlns:xlink="http://www.w3.org/1999/xlink"><symbol fill="none" viewBox="0 0 30 30" id="rounded-angle" xmlns="http://www.w3.org/2000/svg"><path d="M15 29C7.268 29 1 22.732 1 15S7.268 1 15 1s14 6.268 14 14-6.268 14-14 14z" stroke="currentColor" stroke-width="2"/><path fill-rule="evenodd" clip-rule="evenodd" d="M13 18.067l.946.933L18 15l-4.054-4-.946.933L16.108 15 13 18.067z" fill="currentColor"/></symbol><symbol fill="none" viewBox="0 0 19 20" id="search" xmlns="http://www.w3.org/2000/svg"><path fill-rule="evenodd" clip-rule="evenodd" d="M7.961 13.534a5.573 5.573 0 100-11.145 5.573 5.573 0 000 11.145zm0 2.389A7.961 7.961 0 107.961 0a7.961 7.961 0 000 15.923z" fill="currentColor"/><path fill-rule="evenodd" clip-rule="evenodd" d="M11.178 12.617a1.194 1.194 0 011.681.153l3.981 4.777a1.194 1.194 0 01-1.835 1.529l-3.98-4.777a1.194 1.194 0 01.153-1.682z" fill="currentColor"/></symbol></svg>